<?xml version="1.0" encoding="utf-8"?>
<!-- Generator: Adobe Illustrator 25.4.1, SVG Export Plug-In . SVG Version: 6.00 Build 0)  -->
<svg version="1.1" id="Layer_1" xmlns="http://www.w3.org/2000/svg" xmlns:xlink="http://www.w3.org/1999/xlink" x="0px" y="0px"
	 viewBox="0 0 32 32" style="enable-background:new 0 0 32 32;" xml:space="preserve">
<g>
	<path d="M20.1,5.2l-2.5,2.5c-0.4,0.4-0.4,1,0,1.4c0.2,0.2,0.5,0.3,0.7,0.3S18.8,9.2,19,9l3.9-3.9L19,1.3c-0.4-0.4-1-0.4-1.4,0
		s-0.4,1,0,1.4L20.1,5.2z"/>
	<path d="M26,8.2l-1.5,1.4c2.1,2.1,3.4,5,3.4,8.2c0,6.4-5.2,11.6-11.6,11.6c-6.4,0-11.6-5.2-11.6-11.6C4.6,11.9,9,7.1,14.7,6.3
		l-1.3,1.3C13,8,13,8.7,13.4,9c0.2,0.2,0.5,0.3,0.7,0.3s0.5-0.1,0.7-0.3l3.9-3.9l-3.9-3.9c-0.4-0.4-1-0.4-1.4,0s-0.4,1,0,1.4
		l1.5,1.5c-7,0.7-12.4,6.5-12.4,13.6c0,7.6,6.1,13.7,13.7,13.7s13.7-6.1,13.7-13.7C29.9,14.1,28.4,10.7,26,8.2z"/>
</g>
</svg>
