<?xml version="1.0" encoding="utf-8"?>
<!-- Generator: Adobe Illustrator 25.4.1, SVG Export Plug-In . SVG Version: 6.00 Build 0)  -->
<svg version="1.1" id="Layer_1" xmlns="http://www.w3.org/2000/svg" xmlns:xlink="http://www.w3.org/1999/xlink" x="0px" y="0px"
	 viewBox="0 0 32 32" style="enable-background:new 0 0 32 32;" xml:space="preserve">
<g>
	<path d="M12.4,5.2l2.5,2.5c0.4,0.4,0.4,1,0,1.4c-0.2,0.2-0.5,0.3-0.7,0.3S13.6,9.2,13.4,9L9.5,5.2l3.9-3.9c0.4-0.4,1-0.4,1.4,0
		s0.4,1,0,1.4L12.4,5.2z"/>
	<path d="M6.5,8.2L8,9.6c-2.1,2.1-3.4,5-3.4,8.2c0,6.4,5.2,11.6,11.6,11.6c6.4,0,11.6-5.2,11.6-11.6c0-5.9-4.4-10.7-10.1-11.5
		L19,7.6c0.4,0.4,0.4,1,0,1.4c-0.2,0.2-0.5,0.3-0.7,0.3S17.8,9.2,17.6,9l-3.9-3.9l3.9-3.9c0.4-0.4,1-0.4,1.4,0s0.4,1,0,1.4l-1.5,1.5
		c7,0.7,12.4,6.5,12.4,13.6c0,7.6-6.1,13.7-13.7,13.7S2.5,25.4,2.5,17.8C2.5,14.1,4,10.7,6.5,8.2z"/>
</g>
</svg>
