<svg id="Logos" xmlns="http://www.w3.org/2000/svg" xmlns:xlink="http://www.w3.org/1999/xlink" viewBox="0 0 429.97 129"><defs><style>.cls-1{fill:none;}.cls-2{fill:#fff;}.cls-3{fill:#9f64d1;}.cls-4{clip-path:url(#clip-path);}</style><clipPath id="clip-path"><rect class="cls-1" x="2.48" y="8.56" width="425" height="111.88"/></clipPath><symbol id="logo-horizontal_dark" data-name="logo-horizontal dark" viewBox="0 0 425.05 111.88"><path class="cls-2" d="M138.63,40.11l-8.34-14.24h-8.43l34.52,58.6a9.37,9.37,0,0,0,8.08,4.61h0a9.38,9.38,0,0,0,8.07-4.61l34.52-58.6h-8.34l-8.34,14.22Zm23.72,40-20.12-34h44.54L166.66,80.14a2.49,2.49,0,0,1-4.31,0Z"/><path class="cls-2" d="M356.63,40.11l-8.34-14.24h-8.44l34.53,58.6a9.35,9.35,0,0,0,8.07,4.61h0a9.38,9.38,0,0,0,8.07-4.61l34.53-58.6h-8.34l-8.34,14.22Zm23.71,40-20.11-34h44.54L384.65,80.14a2.49,2.49,0,0,1-4.31,0Z"/><path class="cls-2" d="M217.41,89.1H225V25.87h-7.58Z"/><path class="cls-2" d="M235.92,86.6a2.5,2.5,0,0,0,2.5,2.5h49.63c9.57,0,14-1.23,17.34-4.83,2.56-2.84,3.89-7.68,3.89-14.5,0-10.24-2.37-13.84-10.14-15.64,6.43-1.26,8.91-4.55,8.91-11.84V25.87h-7.6v12c.19,10.89-2.55,13.55-13.55,13.45H243.5V25.87h-7.58ZM285.1,57.35c13,0,16.3,2.56,16.3,12.8,0,10-3.41,12.6-16.77,12.6H243.5V57.35Z"/><path class="cls-2" d="M321.34,89.1h7.59V25.87h-7.59Z"/><path class="cls-3" d="M7.2,89.52a6.76,6.76,0,0,1,6.48,4.83h0c.57,1.72,1.7,3,4.69,4a5.83,5.83,0,0,0,5.38-.67l.2-.17h0a6.76,6.76,0,0,1,10.13,2.15h0a6.65,6.65,0,0,0,5.25,3,6.92,6.92,0,0,0,5.38-1.79,6.75,6.75,0,0,1,9.5-1,6.37,6.37,0,0,1,1,1,7,7,0,0,0,5.48,1.74c3.16-.4,4.35-1.74,5.08-2.94a6.73,6.73,0,0,1,9.1-2.84,6.63,6.63,0,0,1,1,.62h0a6.49,6.49,0,0,0,6.07.84,5.94,5.94,0,0,0,4.29-4h0a6.76,6.76,0,1,1,4.46,8.45,6.61,6.61,0,0,1-2-1h0a6.43,6.43,0,0,0-5.91-.59c-3,1-4.25,2.54-4.65,3.88h0a6.75,6.75,0,0,1-11.32,2.4h0a7.1,7.1,0,0,0-5.55-2.08,7.81,7.81,0,0,0-5.5,3.18h0A6.75,6.75,0,0,1,46.54,111a6.84,6.84,0,0,1-2.4-2.41h0a6.89,6.89,0,0,0-5.18-3,8.08,8.08,0,0,0-5.91,1.87h0A6.74,6.74,0,0,1,21.75,105h0l-.05-.12v-.07c-.43-1.3-1.41-2.87-4.25-3.8a7.14,7.14,0,0,0-6.27.78h0a6.75,6.75,0,1,1-4-12.22Z"/><path class="cls-3" d="M6.86,69.87a6.8,6.8,0,0,1,6.52,4.79h0c.58,1.72,1.51,3.07,4.52,4a6.44,6.44,0,0,0,5.69-.7l.13-.1.1-.09h0A6.83,6.83,0,0,1,33.4,79a7.56,7.56,0,0,1,.65,1h0a6.25,6.25,0,0,0,5,3.08,7.53,7.53,0,0,0,5.75-2h0a6.83,6.83,0,0,1,9.63-.71,7.93,7.93,0,0,1,.71.71h0a6.7,6.7,0,0,0,5.56,2A6.62,6.62,0,0,0,66,80h0a6.85,6.85,0,0,1,9.29-2.73,7.06,7.06,0,0,1,1.08.73,6.62,6.62,0,0,0,5.94.69,5.84,5.84,0,0,0,4.21-3.78,6.78,6.78,0,1,1,4.8,8.3,7,7,0,0,1-2.22-1.06h0a6.52,6.52,0,0,0-6-.57c-3,1-4.18,2.47-4.71,3.79h0a6.83,6.83,0,0,1-11.63,2.2A7.88,7.88,0,0,0,61.17,86a7.34,7.34,0,0,0-5.33,2.8,6.82,6.82,0,0,1-11.79,0A7.24,7.24,0,0,0,38.79,86a8.09,8.09,0,0,0-5.68,1.61,6.83,6.83,0,0,1-11.56-2.22h0l-.06-.18a.06.06,0,0,1,0-.06c-.44-1.27-1.56-2.62-4.44-3.54-2.57-.84-5-.46-6.18.46h0a6.78,6.78,0,1,1-4-12.19Z"/><path class="cls-3" d="M92.05,63.76a6.63,6.63,0,0,1-3.74-1.15h0A6.26,6.26,0,0,0,82.5,62c-2.75.9-4.07,2.27-4.53,3.53v.08a.49.49,0,0,0,0,.17h0A6.66,6.66,0,0,1,69.56,70a6.6,6.6,0,0,1-3.1-2.14,7,7,0,0,0-5.21-1.55,7.84,7.84,0,0,0-5.47,2.82,6.66,6.66,0,0,1-9.06,2.59,6.58,6.58,0,0,1-2.59-2.59,6.45,6.45,0,0,0-4.93-2.8A8,8,0,0,0,33.38,68h0a6.66,6.66,0,0,1-11.33-2.1h0C21.65,64.5,20.33,63,17.31,62a6.54,6.54,0,0,0-5.94.56,6.63,6.63,0,0,1-3.78,1.18,6.76,6.76,0,1,1,6.46-8.61h0a5.62,5.62,0,0,0,4.15,4,6.19,6.19,0,0,0,5.92-.82h0a6.57,6.57,0,0,1,4.24-1.53,6.67,6.67,0,0,1,6,3.65,6.38,6.38,0,0,0,5.09,3.1A7,7,0,0,0,45,61.43h0a6.63,6.63,0,0,1,9.34-.81,7.74,7.74,0,0,1,.81.81h0a6.89,6.89,0,0,0,5.61,2.11,6.28,6.28,0,0,0,5-3.19h0A6.67,6.67,0,0,1,76,58.46a6.4,6.4,0,0,0,5.66.65,5.46,5.46,0,0,0,4-4h0a6.7,6.7,0,1,1,6.37,8.65Z"/><path class="cls-3" d="M69.37,29.27a6.7,6.7,0,0,1-4.58-1.8h0a5.55,5.55,0,0,0-4.88-1.21c-2.62.53-3.25,2.19-3.91,3.3h0a6.75,6.75,0,0,1-12.08,0h0c-.66-1.11-1.28-2.77-3.91-3.3a5.54,5.54,0,0,0-4.88,1.21h0a6.75,6.75,0,1,1,1.92-6.83h0c.48,1.21.84,2.5,3.53,2.91a4.17,4.17,0,0,0,4.2-1.39v.06a6.74,6.74,0,0,1,9.5-.91,7.11,7.11,0,0,1,.91.91h0a4.18,4.18,0,0,0,4.21,1.39c2.68-.41,3-1.7,3.52-2.91h0a6.76,6.76,0,1,1,6.49,8.62Z"/><path class="cls-3" d="M51.05,13.41a6.75,6.75,0,1,1,5.54-7.79,6.77,6.77,0,0,1-5.54,7.79Z"/><path class="cls-3" d="M87,44.1a6.66,6.66,0,0,1-4.12-1.42h0l-.34-.28a4.7,4.7,0,0,0-4.31-.74c-2.42.75-2.65,2.3-3.14,3.51h0a6.74,6.74,0,0,1-8.69,3.91,6.65,6.65,0,0,1-2.54-1.7,5,5,0,0,0-4.35-1.25c-2.48.49-2.89,2-3.49,3.11h0a6.74,6.74,0,0,1-9,3.06,6.67,6.67,0,0,1-3.06-3.06h0c-.61-1.15-1-2.61-3.5-3.11A5,5,0,0,0,36,47.45l-.14.15h0a6.74,6.74,0,0,1-9.53-.18,6.67,6.67,0,0,1-1.47-2.34h0c-.61-1.21-.81-2.72-3.2-3.47a4.73,4.73,0,0,0-4.37.79l-.24.23H17a6.76,6.76,0,1,1,2.33-7.25h0a.27.27,0,0,0,.05.19c0,.07,0,.14.05.21a3.91,3.91,0,0,0,3.15,3.09,3.49,3.49,0,0,0,3.76-1h0a6.76,6.76,0,0,1,11,2.24h0l.06.17v.11a4,4,0,0,0,3.65,2.87,3.61,3.61,0,0,0,3.66-1.39h0a6.74,6.74,0,0,1,9.5-.91,7.28,7.28,0,0,1,1,1,3.52,3.52,0,0,0,3.63,1.3,4.13,4.13,0,0,0,3.65-3.11h0a6.74,6.74,0,0,1,11-2.2,3.44,3.44,0,0,0,3.77.91,4,4,0,0,0,3.26-3.46h0A6.76,6.76,0,1,1,87,44.07Z"/></symbol></defs><g class="cls-4"><use width="425.05" height="111.88" transform="matrix(1, 0, 0, -1, 1.55, 119.47)" xlink:href="#logo-horizontal_dark"/></g></svg>