<svg id="Logos" xmlns="http://www.w3.org/2000/svg" xmlns:xlink="http://www.w3.org/1999/xlink" viewBox="0 0 125 125"><defs><style>.cls-1{fill:#9f64d1;}</style><symbol id="logomark_purple" data-name="logomark_purple" viewBox="0 0 109.74 123"><path class="cls-1" d="M7.86,24.57A7.42,7.42,0,0,0,15,19.26h0c.62-1.89,1.86-3.33,5.15-4.41a6.38,6.38,0,0,1,5.91.73l.23.18,0,0h0a7.42,7.42,0,0,0,11.13-2.36h0a7.32,7.32,0,0,1,5.78-3.3,7.61,7.61,0,0,1,5.88,2,7.42,7.42,0,0,0,11.55,0,7.64,7.64,0,0,1,6-1.92c3.47.45,4.75,2,5.58,3.24a7.42,7.42,0,0,0,11.08,2.44h0A7.1,7.1,0,0,1,90,15c3.31,1.08,4.17,2.89,4.72,4.4h0a7.45,7.45,0,1,0,2.73-8.21h0c-1.25,1-3.67,1.57-6.5.65C87.65,10.7,86.29,9,85.85,7.51v0A7.42,7.42,0,0,0,73.41,4.89h0A7.84,7.84,0,0,1,67.3,7.14a8.55,8.55,0,0,1-6-3.49h0a7.41,7.41,0,0,0-12.79,0v0A7.61,7.61,0,0,1,42.78,6.9a8.83,8.83,0,0,1-6.46-2h0A7.42,7.42,0,0,0,23.86,7.57v0s0,.1,0,.15l0,.08c-.47,1.43-1.55,3.16-4.67,4.18a7.9,7.9,0,0,1-6.9-.86v0A7.42,7.42,0,1,0,7.86,24.57Z"/><path class="cls-1" d="M7.49,46.18a7.49,7.49,0,0,0,7.17-5.27h0c.63-1.89,1.65-3.38,5-4.46a7.07,7.07,0,0,1,6.26.78l.14.11.11.09h0A7.5,7.5,0,0,0,37.32,35v.05a6.89,6.89,0,0,1,5.56-3.43,8.29,8.29,0,0,1,6.33,2.24v0a7.53,7.53,0,0,0,11.37,0v0a7.38,7.38,0,0,1,6.12-2.22,7.27,7.27,0,0,1,5.77,3.41h0a7.52,7.52,0,0,0,11.4,2.18,7.25,7.25,0,0,1,6.53-.76c3.15,1,4.06,2.68,4.62,4.14a7.46,7.46,0,1,0,2.87-7.92v0c-1.25,1-3.71,1.55-6.55.63-3.31-1.08-4.59-2.72-5.18-4.17h0a7.51,7.51,0,0,0-12.79-2.42,8.64,8.64,0,0,1-6.09,1.7,8.13,8.13,0,0,1-5.86-3.07,7.52,7.52,0,0,0-13,0,7.9,7.9,0,0,1-5.77,3.06,8.85,8.85,0,0,1-6.25-1.77,7.5,7.5,0,0,0-12.71,2.45v0l-.06.2a.14.14,0,0,0,0,.06c-.5,1.4-1.7,2.89-4.81,3.91-2.84.92-5.55.51-6.8-.5h0a7.45,7.45,0,1,0-4.45,13.4Z"/><path class="cls-1" d="M101.15,52.89A7.3,7.3,0,0,0,97,54.16h0c-1.22,1-3.63,1.58-6.39.68-3-1-4.47-2.5-5-3.89a.29.29,0,0,0,0-.09,1.27,1.27,0,0,1-.06-.18h0A7.32,7.32,0,0,0,73,48.33,7.66,7.66,0,0,1,67.29,50a8.61,8.61,0,0,1-6-3.1,7.33,7.33,0,0,0-12.81,0A7.11,7.11,0,0,1,43,50a8.8,8.8,0,0,1-6.4-1.79h0a7.29,7.29,0,0,0-5.53-2.55,7.38,7.38,0,0,0-6.92,4.89v0c-.45,1.51-1.9,3.15-5.21,4.23-2.82.92-5.28.39-6.53-.61a7.3,7.3,0,0,0-4.16-1.3,7.43,7.43,0,1,0,7.07,9.46h0A6.21,6.21,0,0,1,19.93,58a6.81,6.81,0,0,1,6.51.9h0a7.24,7.24,0,0,0,4.67,1.69,7.35,7.35,0,0,0,6.53-4,7,7,0,0,1,5.6-3.41,7.61,7.61,0,0,1,6,2.34v0a7.32,7.32,0,0,0,11.17,0v0a7.52,7.52,0,0,1,6.17-2.32,6.82,6.82,0,0,1,5.51,3.51h0a7.32,7.32,0,0,0,11.33,2.07A7,7,0,0,1,89.69,58a6,6,0,0,1,4.39,4.38h0a7.37,7.37,0,1,0,7.07-9.5Z"/><path class="cls-1" d="M76.22,90.81a7.41,7.41,0,0,0-5,2h0a6.11,6.11,0,0,1-5.37,1.33c-2.88-.58-3.57-2.4-4.3-3.63h0a7.43,7.43,0,0,0-13.28.06v-.07c-.74,1.23-1.42,3-4.31,3.63a6.12,6.12,0,0,1-5.37-1.33h0a7.43,7.43,0,1,0,2.09,7.49v0c.53-1.33.92-2.75,3.87-3.2a4.58,4.58,0,0,1,4.62,1.53v-.07a7.44,7.44,0,0,0,11.44,0v0A4.58,4.58,0,0,1,65.2,97.1c3,.45,3.34,1.87,3.87,3.2v0a7.42,7.42,0,1,0,7.14-9.47Z"/><path class="cls-1" d="M56.06,108.25a7.42,7.42,0,1,0,6.09,8.56A7.42,7.42,0,0,0,56.06,108.25Z"/><path class="cls-1" d="M95.59,74.51a7.41,7.41,0,0,0-4.54,1.55h0l0,0-.37.31a5.23,5.23,0,0,1-4.75.81c-2.65-.82-2.91-2.53-3.44-3.86v0A7.4,7.4,0,0,0,70.1,71a5.52,5.52,0,0,1-4.78,1.37c-2.73-.54-3.18-2.15-3.85-3.42v0a7.42,7.42,0,0,0-13.3,0h0c-.67,1.27-1.12,2.88-3.84,3.42a5.51,5.51,0,0,1-4.86-1.45l-.16-.16,0,0h0a7.36,7.36,0,0,0-5.16-2.1,7.44,7.44,0,0,0-7,4.87v0c-.53,1.33-.73,3-3.39,3.8a5.2,5.2,0,0,1-4.8-.86l-.3-.26-.06-.05h0a7.43,7.43,0,1,0,2.56,8h0a1.6,1.6,0,0,1,.05-.21l.06-.23a4.29,4.29,0,0,1,3.5-3.36,3.82,3.82,0,0,1,4.14,1.07h0A7.43,7.43,0,0,0,41,78.86h0l.06-.19.05-.12A4.44,4.44,0,0,1,45,75.43,3.94,3.94,0,0,1,49.1,77h0a7.44,7.44,0,0,0,11.54-.11,3.85,3.85,0,0,1,4-1.43,4.5,4.5,0,0,1,4,3.42h0a7.43,7.43,0,0,0,12.14,2.42,3.78,3.78,0,0,1,4.1-1c2.73.69,3.2,2.38,3.58,3.81h0a7.43,7.43,0,1,0,7.13-9.52Z"/></symbol></defs><use width="109.74" height="123" transform="translate(7.63 1)" xlink:href="#logomark_purple"/></svg>